<?xml version="1.0" standalone="no"?>
<!DOCTYPE svg PUBLIC "-//W3C//DTD SVG 20010904//EN"
 "http://www.w3.org/TR/2001/REC-SVG-20010904/DTD/svg10.dtd">
<svg version="1.0" xmlns="http://www.w3.org/2000/svg"
 width="474.000000pt" height="90.000000pt" viewBox="0 0 474.000000 90.000000"
 preserveAspectRatio="xMidYMid meet">

<g transform="translate(0.000000,90.000000) scale(0.100000,-0.100000)"
fill="#000000" stroke="none">
<path d="M1217 801 c5 -62 3 -76 -21 -125 -68 -138 -250 -235 -475 -252 -155
-11 -355 36 -467 111 -30 19 -54 30 -54 23 0 -7 28 -40 63 -74 210 -205 629
-240 884 -75 104 67 156 153 155 256 -1 68 -17 113 -61 168 l-30 38 6 -70z"/>
<path d="M1030 822 c0 -34 -57 -105 -115 -144 -86 -57 -148 -73 -295 -73 -140
0 -211 16 -292 66 -62 38 -61 23 3 -35 183 -164 540 -167 696 -5 67 70 78 120
41 176 -26 37 -38 42 -38 15z"/>
<path d="M1445 698 c0 -93 -3 -109 -28 -160 -59 -121 -178 -219 -342 -281
-142 -55 -189 -62 -400 -62 -146 1 -206 5 -260 18 -108 27 -243 85 -323 137
l-72 48 22 -40 c34 -61 156 -168 245 -215 459 -243 1114 -110 1264 257 8 21
14 69 14 120 0 76 -3 92 -32 150 -18 36 -45 80 -61 98 l-28 33 1 -103z"/>
<path d="M1905 731 c-75 -19 -131 -67 -165 -143 -43 -98 -39 -186 13 -245 40
-46 82 -63 152 -63 69 0 112 17 159 65 39 39 44 70 14 88 -13 9 -26 3 -63 -32
-39 -36 -51 -42 -83 -39 -30 2 -38 8 -46 31 -21 58 32 211 85 250 33 24 52 15
82 -38 47 -82 78 -73 116 34 21 62 23 74 11 82 -23 14 -53 10 -79 -10 -23 -18
-25 -18 -55 -1 -38 22 -100 31 -141 21z"/>
<path d="M3847 724 c-151 -47 -227 -299 -120 -396 54 -49 174 -64 241 -29 39
20 85 65 95 93 5 14 -20 48 -36 48 -3 0 -27 -18 -52 -40 -48 -41 -89 -52 -113
-28 -29 29 0 180 47 247 40 56 80 43 123 -38 14 -26 23 -32 44 -29 23 3 31 12
51 67 13 35 23 74 21 85 -4 28 -35 32 -75 11 -30 -16 -35 -16 -66 -2 -51 24
-106 28 -160 11z"/>
<path d="M2235 719 c-4 -6 3 -21 15 -34 18 -19 89 -192 90 -218 0 -27 -35
-122 -52 -139 -38 -38 -18 -48 101 -48 116 0 135 7 105 41 -16 18 -16 22 0 80
19 71 122 217 140 199 13 -13 62 -13 87 0 15 8 19 7 19 -5 0 -31 54 -17 95 25
33 34 75 53 75 35 0 -4 -19 -72 -42 -153 -29 -104 -49 -155 -67 -175 -37 -40
-20 -48 100 -45 l104 3 -3 42 c-2 24 9 83 27 145 16 56 35 122 41 146 14 55
41 57 67 5 15 -31 23 -38 48 -38 36 0 58 38 59 100 l1 40 -223 3 c-227 2 -262
-2 -262 -35 0 -12 -6 -9 -25 11 -28 30 -73 35 -109 11 -13 -9 -47 -49 -76 -90
-29 -41 -56 -75 -60 -75 -4 0 -13 28 -20 61 -10 48 -11 66 -1 81 6 10 9 23 6
28 -9 14 -232 13 -240 -1z"/>
<path d="M3295 720 c-3 -5 -3 -21 1 -35 10 -40 -72 -323 -104 -357 -13 -14
-21 -31 -18 -37 11 -16 367 -15 388 2 18 13 48 105 41 125 -10 26 -56 12 -104
-33 -35 -33 -56 -45 -79 -45 -35 0 -37 7 -13 90 18 67 44 81 65 35 9 -20 18
-25 37 -23 21 3 28 12 43 63 10 32 16 65 14 72 -8 20 -35 15 -68 -12 -35 -29
-62 -33 -54 -7 2 9 10 36 17 60 12 42 12 42 59 42 46 0 47 -1 59 -41 11 -37
15 -40 44 -37 30 3 33 7 46 60 23 88 23 88 -190 88 -102 0 -180 -4 -184 -10z"/>
<path d="M4217 723 c-4 -3 -4 -22 -1 -42 8 -53 -75 -334 -106 -359 -40 -32
-17 -42 96 -42 111 0 127 7 106 47 -6 12 -4 37 8 78 l17 60 61 3 61 3 -16 -58
c-9 -32 -27 -70 -41 -85 -13 -14 -21 -31 -18 -37 9 -14 212 -15 221 -1 3 5 1
18 -4 29 -10 17 18 134 76 325 3 11 17 30 31 43 39 36 19 44 -99 41 l-104 -3
3 -37 c1 -21 -4 -62 -13 -93 l-16 -55 -60 0 -59 0 6 28 c16 62 35 105 55 121
39 31 15 41 -95 41 -56 0 -106 -3 -109 -7z"/>
</g>
</svg>
